<svg xmlns="http://www.w3.org/2000/svg" width="1100" height="620" viewBox="0 0 1100 620">
<rect width="100%" height="100%" fill="#ffffff"/>
<text x="40" y="46" font-size="28" font-family="Arial" fill="#1F2937">Market-Data Request and Callback Sequence</text>
<defs><marker id="arrow" markerWidth="10" markerHeight="8" refX="9" refY="4" orient="auto"><path d="M0,0 L10,4 L0,8 z" fill="#6B7280"/></marker></defs>
<line x1="205" y1="152.0" x2="255" y2="152.0" stroke="#6B7280" stroke-width="2.5" marker-end="url(#arrow)"/>
<line x1="405" y1="152.0" x2="455" y2="152.0" stroke="#6B7280" stroke-width="2.5" marker-end="url(#arrow)"/>
<line x1="605" y1="152.0" x2="655" y2="152.0" stroke="#6B7280" stroke-width="2.5" marker-end="url(#arrow)"/>
<line x1="805" y1="152.0" x2="855" y2="152.0" stroke="#6B7280" stroke-width="2.5" marker-end="url(#arrow)"/>
<rect x="55" y="120" width="150" height="64" rx="10" fill="#27AE60" fill-opacity="0.13" stroke="#27AE60" stroke-width="2"/>
<text x="71" y="150" font-size="17" font-family="Arial" fill="#1F2937">Runtime</text>
<rect x="255" y="120" width="150" height="64" rx="10" fill="#2F80ED" fill-opacity="0.13" stroke="#2F80ED" stroke-width="2"/>
<text x="271" y="150" font-size="17" font-family="Arial" fill="#1F2937">IBKR Readonly</text>
<text x="271" y="172" font-size="17" font-family="Arial" fill="#1F2937">/ Streaming</text>
<rect x="455" y="120" width="150" height="64" rx="10" fill="#6B7280" fill-opacity="0.13" stroke="#6B7280" stroke-width="2"/>
<text x="471" y="150" font-size="17" font-family="Arial" fill="#1F2937">TWS Socket</text>
<text x="471" y="172" font-size="17" font-family="Arial" fill="#1F2937">7497</text>
<rect x="655" y="120" width="150" height="64" rx="10" fill="#6B7280" fill-opacity="0.13" stroke="#6B7280" stroke-width="2"/>
<text x="671" y="150" font-size="17" font-family="Arial" fill="#1F2937">Callbacks</text>
<rect x="855" y="120" width="150" height="64" rx="10" fill="#7B61FF" fill-opacity="0.13" stroke="#7B61FF" stroke-width="2"/>
<text x="871" y="150" font-size="17" font-family="Arial" fill="#1F2937">State Bus</text>
<text x="871" y="172" font-size="17" font-family="Arial" fill="#1F2937">Reports</text>
</svg>