<svg xmlns="http://www.w3.org/2000/svg" width="1100" height="620" viewBox="0 0 1100 620">
<rect width="100%" height="100%" fill="#ffffff"/>
<text x="40" y="46" font-size="28" font-family="Arial" fill="#1F2937">Trading Signal and Order Flow</text>
<defs><marker id="arrow" markerWidth="10" markerHeight="8" refX="9" refY="4" orient="auto"><path d="M0,0 L10,4 L0,8 z" fill="#6B7280"/></marker></defs>
<line x1="195" y1="149.0" x2="230" y2="149.0" stroke="#6B7280" stroke-width="2.5" marker-end="url(#arrow)"/>
<line x1="375" y1="149.0" x2="410" y2="149.0" stroke="#6B7280" stroke-width="2.5" marker-end="url(#arrow)"/>
<line x1="555" y1="149.0" x2="590" y2="149.0" stroke="#6B7280" stroke-width="2.5" marker-end="url(#arrow)"/>
<line x1="735" y1="149.0" x2="770" y2="149.0" stroke="#6B7280" stroke-width="2.5" marker-end="url(#arrow)"/>
<line x1="915" y1="149.0" x2="590" y2="319.0" stroke="#6B7280" stroke-width="2.5" marker-end="url(#arrow)"/>
<line x1="735" y1="319.0" x2="770" y2="319.0" stroke="#6B7280" stroke-width="2.5" marker-end="url(#arrow)"/>
<line x1="915" y1="319.0" x2="410" y2="319.0" stroke="#6B7280" stroke-width="2.5" marker-end="url(#arrow)"/>
<rect x="50" y="120" width="145" height="58" rx="10" fill="#2F80ED" fill-opacity="0.13" stroke="#2F80ED" stroke-width="2"/>
<text x="66" y="150" font-size="17" font-family="Arial" fill="#1F2937">Candidate</text>
<rect x="230" y="120" width="145" height="58" rx="10" fill="#27AE60" fill-opacity="0.13" stroke="#27AE60" stroke-width="2"/>
<text x="246" y="150" font-size="17" font-family="Arial" fill="#1F2937">Pool layer</text>
<rect x="410" y="120" width="145" height="58" rx="10" fill="#27AE60" fill-opacity="0.13" stroke="#27AE60" stroke-width="2"/>
<text x="426" y="150" font-size="17" font-family="Arial" fill="#1F2937">Signal</text>
<rect x="590" y="120" width="145" height="58" rx="10" fill="#F2994A" fill-opacity="0.13" stroke="#F2994A" stroke-width="2"/>
<text x="606" y="150" font-size="17" font-family="Arial" fill="#1F2937">Order intent</text>
<rect x="770" y="120" width="145" height="58" rx="10" fill="#D64545" fill-opacity="0.13" stroke="#D64545" stroke-width="2"/>
<text x="786" y="150" font-size="17" font-family="Arial" fill="#1F2937">Risk gate</text>
<rect x="590" y="290" width="145" height="58" rx="10" fill="#F2994A" fill-opacity="0.13" stroke="#F2994A" stroke-width="2"/>
<text x="606" y="320" font-size="17" font-family="Arial" fill="#1F2937">Paper executor</text>
<rect x="770" y="290" width="145" height="58" rx="10" fill="#6B7280" fill-opacity="0.13" stroke="#6B7280" stroke-width="2"/>
<text x="786" y="320" font-size="17" font-family="Arial" fill="#1F2937">TWS paper</text>
<rect x="410" y="290" width="145" height="58" rx="10" fill="#7B61FF" fill-opacity="0.13" stroke="#7B61FF" stroke-width="2"/>
<text x="426" y="320" font-size="17" font-family="Arial" fill="#1F2937">Audit trail</text>
</svg>